<svg width="88" height="95" viewBox="0 0 88 95" fill="none" xmlns="http://www.w3.org/2000/svg">
<g clip-path="url(#clip0_402_2896)">
<path d="M56.8983 12.1097L46.8694 21.4433C46.6557 21.3684 46.4313 21.3203 46.1909 21.3203C45.7955 21.3203 45.4215 21.4326 45.0849 21.6145L39.0152 16.8327C38.6305 16.5278 38.0374 16.6241 37.6901 17.0359C37.3428 17.4531 37.3749 18.0361 37.7596 18.341L43.8613 23.1496C43.8293 23.2619 43.8025 23.3796 43.7919 23.4973C43.669 24.7008 44.5399 25.6742 45.7421 25.6742C46.9443 25.6742 48.0182 24.7008 48.1464 23.4973C48.1732 23.2298 48.1464 22.9784 48.0823 22.7431L58.1059 13.4094C58.5013 13.0404 58.5547 12.4467 58.2234 12.0883C57.8922 11.7299 57.2991 11.7353 56.9037 12.1097H56.8983ZM64.7313 23.754L65.3243 23.6791C65.3938 23.6684 65.4579 23.6791 65.5274 23.6791C65.6289 23.6577 65.7251 23.631 65.8266 23.6149L69.4652 23.1656C70.6193 10.3606 61.2422 0 48.4136 0C35.5849 0 23.8409 10.5425 22.4891 23.4973C22.2968 25.3533 22.3288 27.1505 22.5586 28.8835C24.9149 29.0975 26.7689 29.9319 28.0886 31.3921C27.2231 28.9851 26.8597 26.3161 27.1536 23.4973C28.2382 13.1153 37.5565 4.6695 47.9274 4.6695C58.2982 4.6695 65.8533 13.1153 64.774 23.4973C64.7633 23.5829 64.7419 23.6684 64.7366 23.754H64.7313Z" fill="#FF0000"/>
<path d="M5.95744 66.6728L16.0932 51.4287L16.8626 50.2734C18.0968 48.3959 19.0319 46.8448 19.6624 45.6092C20.2928 44.379 20.6722 43.0792 20.7951 41.7099C20.9073 40.4958 20.7684 39.6025 20.3783 39.0195C19.9883 38.4365 19.3578 38.2011 18.4922 38.3134C17.2633 38.4686 16.3657 39.073 15.7993 40.1267C15.2276 41.1804 14.8643 42.5818 14.704 44.3201L14.5437 46.0478L7.76873 46.8983L7.93971 45.0315C8.26563 41.4853 9.32356 38.5809 11.1135 36.313C12.9034 34.0451 15.5055 32.6972 18.9143 32.264C22.056 31.8681 24.3696 32.4298 25.8549 33.9488C27.3403 35.4679 27.9387 37.8107 27.6502 40.9825C27.4739 42.9134 26.9716 44.6892 26.1381 46.3152C25.31 47.9413 24.0543 49.9792 22.382 52.4343L21.8156 53.2901L13.8117 65.0842L24.5833 63.7309L24.0597 69.4221L5.47656 71.7595L5.94141 66.6781L5.95744 66.6728Z" fill="#FF0000"/>
<path d="M36.6911 59.0775L25.6523 60.4681L26.1653 54.8733L37.7757 30.3651L45.8063 29.3542L43.6531 52.814L47.2009 52.3701L46.6986 57.8258L43.1508 58.2698L42.3387 67.1327L35.8736 67.9458L36.6857 59.0828L36.6911 59.0775ZM37.1933 53.6217L38.6627 37.5753L31.6259 54.317L37.1933 53.6163V53.6217Z" fill="#FF0000"/>
<path d="M60.5747 27.4928L64.5713 26.9901L50.1985 66.1379L46.25 66.6353L60.5747 27.4928Z" fill="#FF0000"/>
<path d="M74.4298 31.1888L64.5558 32.4298L65.0634 26.9259L81.7123 24.8345L81.2795 29.5468L70.5721 63.5812L63.8398 64.4263L74.4298 31.1942V31.1888Z" fill="#FF0000"/>
<path d="M1.06965 93.8874C0.257511 92.9621 -0.0951306 91.4163 0.0277595 89.25L3.54349 88.207C3.458 89.5014 3.54349 90.4374 3.80529 91.0151C4.0671 91.5928 4.51058 91.8388 5.1464 91.7586C5.61659 91.6998 5.97457 91.5018 6.20967 91.1595C6.4501 90.8225 6.59437 90.4053 6.63711 89.9186C6.71191 89.1109 6.59971 88.4423 6.3005 87.9235C6.00129 87.4047 5.50973 86.8484 4.82582 86.2707L2.95041 84.6821C2.20238 84.0777 1.65205 83.3931 1.29406 82.6389C0.936078 81.8847 0.813188 80.938 0.914706 79.8094C1.06965 78.1406 1.66273 76.7927 2.69394 75.771C3.72515 74.7494 5.07694 74.1343 6.74931 73.9204C8.53389 73.6957 9.73073 74.0755 10.3292 75.0596C10.9276 76.0438 11.2001 77.3543 11.1466 78.9964L7.61489 79.9645C7.679 78.8894 7.63626 78.1085 7.48131 77.6164C7.32636 77.1296 6.94701 76.921 6.34859 76.9959C5.91046 77.0494 5.55247 77.2687 5.27998 77.6431C5.00214 78.0175 4.84719 78.4454 4.80444 78.9161C4.74033 79.5901 4.83116 80.141 5.0716 80.5689C5.31203 80.9968 5.71811 81.4515 6.28447 81.9275L8.11713 83.5C8.97736 84.2435 9.63456 85.0565 10.0834 85.9444C10.5322 86.8323 10.6978 87.9128 10.5803 89.1965C10.4894 90.1753 10.2009 91.0739 9.70936 91.8977C9.2178 92.7214 8.56595 93.3953 7.75381 93.9302C6.94166 94.4651 6.03335 94.7967 5.02885 94.9251C3.21222 95.1551 1.89248 94.8074 1.08034 93.8821L1.06965 93.8874Z" fill="#1394E8"/>
<path d="M15.3534 73.0913L23.9504 72.0109L23.6832 74.8939L19.0775 75.4715L18.5806 80.9113L22.1391 80.462L21.8719 83.3717L18.3135 83.821L17.7257 90.2503L22.3795 89.6672L22.1177 92.5021L13.4727 93.5879L15.3534 73.086V73.0913Z" fill="#1394E8"/>
<path d="M27.2611 71.5937L32.3744 70.9518C34.5009 70.6844 36.0611 70.8876 37.0602 71.5616C38.0594 72.2355 38.4655 73.5674 38.2838 75.5625C38.1609 76.8943 37.8831 77.9962 37.4503 78.8573C37.0175 79.7185 36.3282 80.4192 35.3772 80.9541L37.1885 90.6086L33.0743 91.1275L31.6851 82.1201L30.2211 82.3019L29.3716 91.5928L25.375 92.0956L27.2558 71.5937H27.2611ZM31.6477 79.6757C32.5881 79.558 33.272 79.2317 33.6995 78.7076C34.1269 78.178 34.3834 77.3971 34.4796 76.3701C34.5704 75.3592 34.4689 74.6371 34.1697 74.2092C33.8704 73.7813 33.2774 73.6209 32.3851 73.7332L30.9959 73.9097L30.4509 79.8308L31.6424 79.681L31.6477 79.6757Z" fill="#1394E8"/>
<path d="M41.6055 69.7911L45.0891 69.3525L46.1257 83.2326L49.62 68.7855L53.248 68.3309L47.6164 89.3035L43.4755 89.8223L41.6055 69.7911Z" fill="#1394E8"/>
<path d="M56.5097 67.9137L60.5063 67.4109L58.6255 87.9128L54.6289 88.4156L56.5097 67.9137Z" fill="#1394E8"/>
<path d="M63.9952 85.7733C63.2258 84.7089 62.9426 83.0775 63.1456 80.8631L63.8188 73.5246C64.0272 71.2621 64.615 69.5023 65.5927 68.2346C66.5652 66.9723 68.1093 66.2021 70.2198 65.94C72.2341 65.6886 73.6127 66.0202 74.3553 66.9349C75.098 67.8495 75.3812 69.2616 75.2049 71.1658L75.0446 72.8881L71.1495 73.3802L71.3258 71.4814C71.3793 70.8716 71.3953 70.3902 71.3739 70.0265C71.3525 69.6628 71.235 69.3739 71.0213 69.16C70.8076 68.946 70.4603 68.8658 69.9687 68.93C69.2367 69.0209 68.7451 69.3258 68.4887 69.8393C68.2322 70.3528 68.0612 71.0855 67.9757 72.0323L67.1208 81.3445C67.03 82.3073 67.0888 83.008 67.2865 83.452C67.4842 83.8959 67.917 84.0724 68.5848 83.9869C69.2688 83.9013 69.7283 83.6071 69.9687 83.0989C70.2091 82.5962 70.3694 81.8687 70.4549 80.922L70.6366 78.9215L74.5317 78.4294L74.3767 80.125C74.195 82.0827 73.6447 83.6499 72.715 84.8266C71.7907 86.0033 70.3106 86.7147 68.2803 86.9715C66.1858 87.2336 64.7539 86.8378 63.9845 85.7733H63.9952Z" fill="#1394E8"/>
<path d="M79.4042 65.036L88.0012 63.9556L87.734 66.8386L83.1283 67.4162L82.6314 72.856L86.1899 72.4067L85.9227 75.3164L82.3642 75.7657L81.7765 82.195L86.4303 81.6119L86.1685 84.4468L77.5234 85.5326L79.4042 65.0307V65.036Z" fill="#1394E8"/>
</g>
<defs>
<clipPath id="clip0_402_2896">
<rect width="88" height="95" fill="white"/>
</clipPath>
</defs>
</svg>
