<svg width="65" height="65" viewBox="0 0 65 65" fill="none" xmlns="http://www.w3.org/2000/svg">
<g id="system-uicons:face-happy">
<g id="Group">
<path id="Vector" d="M32.4981 56.881C45.9634 56.881 56.8791 45.9653 56.8791 32.5001C56.8791 19.0349 45.9634 8.11914 32.4981 8.11914C19.0329 8.11914 8.11719 19.0349 8.11719 32.5001C8.11719 45.9653 19.0329 56.881 32.4981 56.881Z" stroke="white" stroke-width="3" stroke-linecap="round" stroke-linejoin="round"/>
<path id="Vector_2" d="M24.8797 27.9287C26.5628 27.9287 27.9273 26.5643 27.9273 24.8811C27.9273 23.198 26.5628 21.8335 24.8797 21.8335C23.1965 21.8335 21.832 23.198 21.832 24.8811C21.832 26.5643 23.1965 27.9287 24.8797 27.9287Z" fill="white"/>
<path id="Vector_3" d="M40.1179 27.9287C41.8011 27.9287 43.1656 26.5643 43.1656 24.8811C43.1656 23.198 41.8011 21.8335 40.1179 21.8335C38.4348 21.8335 37.0703 23.198 37.0703 24.8811C37.0703 26.5643 38.4348 27.9287 40.1179 27.9287Z" fill="white"/>
<path id="Vector_4" d="M23.3555 35.5477C25.1932 39.6102 28.2408 41.643 32.4983 41.643C36.7558 41.643 39.8035 39.6102 41.6412 35.5477" stroke="white" stroke-width="3" stroke-linecap="round" stroke-linejoin="round"/>
</g>
</g>
</svg>
