<svg width="325" height="348" viewBox="0 0 325 348" fill="none" xmlns="http://www.w3.org/2000/svg">
<path d="M-15.5394 320.634C-15.5394 305.559 11.9639 263.427 11.9639 263.427C11.9639 263.427 39.883 305.559 39.883 320.634C39.883 335.678 27.4695 347.88 12.1681 347.88C-3.12582 347.88 -15.5394 335.678 -15.5394 320.634ZM183.326 84.5729H238.749V29.9368H223.636V0.120117H324.441V29.9368H309.321V114.382C309.321 136.336 291.268 154.125 269.004 154.125H183.326V169.033H153.079V69.6797H183.326V84.5729ZM-23.3035 208.769V124.323C-23.3035 102.377 -5.25775 84.5804 16.9838 84.5804H102.676V69.6872H132.924V169.048H102.676V154.132H47.2465V208.769H62.3438V238.585H-38.4386V208.769H-23.3035Z" fill="#F2F8FF"/>
</svg>
