<svg width="56" height="56" viewBox="0 0 56 56" fill="none" xmlns="http://www.w3.org/2000/svg">
<g id="ri:brain-fill">
<path id="Vector" d="M25.668 5.91547C24.249 5.09621 22.6393 4.66495 21.0008 4.66504C19.3623 4.66513 17.7526 5.09657 16.3337 5.91599C14.9148 6.73541 13.7366 7.91393 12.9176 9.33307C12.0986 10.7522 11.6676 12.3619 11.668 14.0005V18.1398C9.6823 18.9378 8.05364 20.1791 6.86364 21.8148C5.3493 23.8985 4.66797 26.4488 4.66797 29.1671C4.66797 32.8095 6.52297 36.0178 9.33464 37.8985V40.8338C9.33449 42.7353 9.8507 44.6011 10.8282 46.2321C11.8056 47.8631 13.2076 49.1981 14.8845 50.0945C16.5614 50.991 18.4503 51.4152 20.3495 51.322C22.2487 51.2287 24.0869 50.6215 25.668 49.5651V40.8338C25.668 37.7235 24.898 35.7355 23.6613 34.3938C22.3943 33.0241 20.3386 32.0045 17.1186 31.4678L17.884 26.8665C20.922 27.3705 23.582 28.3201 25.668 29.9301V5.91547ZM30.3346 5.91547V29.9301C32.4206 28.3201 35.0806 27.3705 38.1186 26.8665L38.884 31.4678C35.664 32.0045 33.6083 33.0241 32.3413 34.3961C31.1046 35.7355 30.3346 37.7235 30.3346 40.8338V49.5651C31.9157 50.6215 33.7539 51.2287 35.6531 51.322C37.5523 51.4152 39.4412 50.991 41.1181 50.0945C42.795 49.1981 44.197 47.8631 45.1744 46.2321C46.1519 44.6011 46.6681 42.7353 46.668 40.8338V37.8985C49.4796 36.0178 51.3346 32.8118 51.3346 29.1671C51.3346 26.4488 50.6533 23.8985 49.139 21.8171C47.949 20.1791 46.3203 18.9378 44.3346 18.1398V14.0005C44.335 12.3619 43.904 10.7522 43.085 9.33307C42.266 7.91393 41.0878 6.73541 39.6689 5.91599C38.25 5.09657 36.6403 4.66513 35.0018 4.66504C33.3633 4.66495 31.7536 5.09621 30.3346 5.91547Z" fill="#ED3537"/>
</g>
</svg>
