<svg width="56" height="56" viewBox="0 0 56 56" fill="none" xmlns="http://www.w3.org/2000/svg">
<g id="mdi:comment-account">
<path id="Vector" d="M21.0013 51.3334C20.3825 51.3334 19.789 51.0876 19.3514 50.65C18.9138 50.2124 18.668 49.6189 18.668 49.0001V42.0001H9.33464C8.09696 42.0001 6.90997 41.5084 6.0348 40.6332C5.15963 39.7581 4.66797 38.5711 4.66797 37.3334V9.33342C4.66797 8.09574 5.15963 6.90875 6.0348 6.03358C6.90997 5.15841 8.09696 4.66675 9.33464 4.66675H46.668C47.9056 4.66675 49.0926 5.15841 49.9678 6.03358C50.843 6.90875 51.3346 8.09574 51.3346 9.33342V37.3334C51.3346 38.5711 50.843 39.7581 49.9678 40.6332C49.0926 41.5084 47.9056 42.0001 46.668 42.0001H32.4346L23.8013 50.6567C23.3346 51.1001 22.7513 51.3334 22.168 51.3334H21.0013ZM37.3346 32.6667V30.3334C37.3346 27.2301 31.1046 25.6667 28.0013 25.6667C24.898 25.6667 18.668 27.2301 18.668 30.3334V32.6667H37.3346ZM28.0013 14.0001C26.7636 14.0001 25.5766 14.4917 24.7015 15.3669C23.8263 16.2421 23.3346 17.4291 23.3346 18.6667C23.3346 19.9044 23.8263 21.0914 24.7015 21.9666C25.5766 22.8417 26.7636 23.3334 28.0013 23.3334C29.239 23.3334 30.426 22.8417 31.3011 21.9666C32.1763 21.0914 32.668 19.9044 32.668 18.6667C32.668 17.4291 32.1763 16.2421 31.3011 15.3669C30.426 14.4917 29.239 14.0001 28.0013 14.0001Z" fill="#ED3537"/>
</g>
</svg>
