<svg width="39" height="35" viewBox="0 0 39 35" fill="none" xmlns="http://www.w3.org/2000/svg">
<path id="Vector" fill-rule="evenodd" clip-rule="evenodd" d="M5.77344 31.25C5.44192 31.25 5.12397 31.1183 4.88955 30.8839C4.65513 30.6495 4.52344 30.3315 4.52344 30V5C4.52344 4.66848 4.65513 4.35054 4.88955 4.11612C5.12397 3.8817 5.44192 3.75 5.77344 3.75H28.8984C29.3957 3.75 29.8726 3.55246 30.2243 3.20083C30.5759 2.84919 30.7734 2.37228 30.7734 1.875C30.7734 1.37772 30.5759 0.900806 30.2243 0.549175C29.8726 0.197544 29.3957 7.41006e-09 28.8984 0H5.77344C4.44736 0 3.17559 0.526784 2.2379 1.46447C1.30022 2.40215 0.773438 3.67392 0.773438 5V30C0.773438 31.3261 1.30022 32.5979 2.2379 33.5355C3.17559 34.4732 4.44736 35 5.77344 35H30.7734C32.0995 35 33.3713 34.4732 34.309 33.5355C35.2467 32.5979 35.7734 31.3261 35.7734 30V21.875C35.7734 21.3777 35.5759 20.9008 35.2243 20.5492C34.8726 20.1975 34.3957 20 33.8984 20C33.4012 20 32.9242 20.1975 32.5726 20.5492C32.221 20.9008 32.0234 21.3777 32.0234 21.875V30C32.0234 30.3315 31.8917 30.6495 31.6573 30.8839C31.4229 31.1183 31.105 31.25 30.7734 31.25H5.77344ZM37.7234 9.2C38.0546 8.84456 38.2349 8.37445 38.2264 7.88869C38.2178 7.40294 38.021 6.93948 37.6775 6.59595C37.334 6.25241 36.8705 6.05563 36.3847 6.04706C35.899 6.03849 35.4289 6.2188 35.0734 6.55L21.1784 20.4425L16.4959 15.6025C16.3251 15.424 16.1207 15.281 15.8944 15.1818C15.6681 15.0825 15.4244 15.029 15.1774 15.0242C14.9303 15.0195 14.6848 15.0636 14.4549 15.1541C14.2249 15.2445 14.0151 15.3796 13.8376 15.5514C13.66 15.7232 13.5181 15.9284 13.4201 16.1552C13.3221 16.3821 13.2699 16.626 13.2665 16.8731C13.2631 17.1201 13.3086 17.3654 13.4003 17.5949C13.492 17.8243 13.6282 18.0334 13.8009 18.21L19.8084 24.42C19.9813 24.5993 20.1881 24.7423 20.4169 24.8408C20.6456 24.9392 20.8917 24.9912 21.1407 24.9935C21.3897 24.9958 21.6367 24.9485 21.8672 24.8543C22.0978 24.7602 22.3073 24.621 22.4834 24.445L37.7234 9.2Z" fill="white"/>
</svg>
