<svg width="56" height="56" viewBox="0 0 56 56" fill="none" xmlns="http://www.w3.org/2000/svg">
<g id="ic:baseline-contact-support">
<path id="Vector" d="M26.8333 4.66675C15.89 4.66675 7 13.5567 7 24.5001C7 35.4434 15.89 44.3334 26.8333 44.3334H28V51.3334C39.34 45.8734 46.6667 35.0001 46.6667 24.5001C46.6667 13.5567 37.7767 4.66675 26.8333 4.66675ZM29.1667 38.5001H24.5V33.8334H29.1667V38.5001ZM29.1667 30.3334H24.5C24.5 22.7501 31.5 23.3334 31.5 18.6667C31.5 16.1001 29.4 14.0001 26.8333 14.0001C24.2667 14.0001 22.1667 16.1001 22.1667 18.6667H17.5C17.5 13.5101 21.6767 9.33341 26.8333 9.33341C31.99 9.33341 36.1667 13.5101 36.1667 18.6667C36.1667 24.5001 29.1667 25.0834 29.1667 30.3334Z" fill="#ED3537"/>
</g>
</svg>
