<svg width="44" height="44" viewBox="0 0 44 44" fill="none" xmlns="http://www.w3.org/2000/svg">
<g id="Group">
<g id="Vector">
<path d="M16.9981 13L12.9981 17C12.0635 17.9159 11.3198 19.0079 10.8099 20.213C10.3 21.418 10.0341 22.7122 10.0275 24.0207C10.0209 25.3292 10.2737 26.626 10.7714 27.8362C11.2691 29.0463 12.0017 30.1458 12.927 31.0711C13.8522 31.9963 14.9517 32.729 16.1619 33.2267C17.372 33.7244 18.6689 33.9772 19.9773 33.9706C21.2858 33.964 22.58 33.698 23.7851 33.1882C24.9902 32.6783 26.0822 31.9346 26.9981 31L30.9981 27C31.9326 26.0842 32.6763 24.9921 33.1862 23.787C33.6961 22.582 33.962 21.2878 33.9686 19.9793C33.9752 18.6708 33.7224 17.374 33.2247 16.1638C32.727 14.9537 31.9944 13.8542 31.0691 12.9289C30.1439 12.0037 29.0444 11.271 27.8342 10.7734C26.6241 10.2757 25.3272 10.0228 24.0188 10.0294C22.7103 10.036 21.4161 10.302 20.211 10.8119C19.0059 11.3217 17.9139 12.0655 16.9981 13ZM25.9981 11V31V11ZM17.9981 13V33V13Z" fill="#ED3537"/>
<path d="M25.9981 11V31M17.9981 13V33M16.9981 13L12.9981 17C12.0635 17.9159 11.3198 19.0079 10.8099 20.213C10.3 21.418 10.0341 22.7122 10.0275 24.0207C10.0209 25.3292 10.2737 26.626 10.7714 27.8362C11.2691 29.0463 12.0017 30.1458 12.927 31.0711C13.8522 31.9963 14.9517 32.729 16.1619 33.2267C17.372 33.7244 18.6689 33.9772 19.9773 33.9706C21.2858 33.964 22.58 33.698 23.7851 33.1882C24.9902 32.6783 26.0822 31.9346 26.9981 31L30.9981 27C31.9326 26.0842 32.6763 24.9921 33.1862 23.787C33.6961 22.582 33.962 21.2878 33.9686 19.9793C33.9752 18.6708 33.7224 17.374 33.2247 16.1638C32.727 14.9537 31.9944 13.8542 31.0691 12.9289C30.1439 12.0037 29.0444 11.271 27.8342 10.7734C26.6241 10.2757 25.3272 10.0228 24.0188 10.0294C22.7103 10.036 21.4161 10.302 20.211 10.8119C19.0059 11.3217 17.9139 12.0655 16.9981 13Z" stroke="#ED3537" stroke-width="4" stroke-linecap="round" stroke-linejoin="round"/>
</g>
<g id="Vector_2">
<path d="M30 12L32 2L34.74 3.36C35.5655 3.77534 36.4759 3.99436 37.4 4H40V6.6C40 7.52 40.2 8.44 40.64 9.26L42 12L32 14M14 32L12 42L9.26 40.64C8.43445 40.2247 7.52412 40.0056 6.6 40H4V37.4C3.99436 36.4759 3.77534 35.5655 3.36 34.74L2 32L12 30" fill="#ED3537"/>
<path d="M30 12L32 2L34.74 3.36C35.5655 3.77534 36.4759 3.99436 37.4 4H40V6.6C40 7.52 40.2 8.44 40.64 9.26L42 12L32 14M14 32L12 42L9.26 40.64C8.43445 40.2247 7.52412 40.0056 6.6 40H4V37.4C3.99436 36.4759 3.77534 35.5655 3.36 34.74L2 32L12 30" stroke="#ED3537" stroke-width="4" stroke-linecap="round" stroke-linejoin="round"/>
</g>
</g>
</svg>
