<svg width="56" height="56" viewBox="0 0 56 56" fill="none" xmlns="http://www.w3.org/2000/svg">
<g id="ion:location-sharp">
<path id="Vector" d="M28 3.5C18.3389 3.5 10.5 10.5558 10.5 19.25C10.5 33.25 28 52.5 28 52.5C28 52.5 45.5 33.25 45.5 19.25C45.5 10.5558 37.6611 3.5 28 3.5ZM28 28C26.6155 28 25.2622 27.5895 24.111 26.8203C22.9599 26.0511 22.0627 24.9579 21.5328 23.6788C21.003 22.3997 20.8644 20.9922 21.1345 19.6344C21.4046 18.2765 22.0713 17.0292 23.0503 16.0503C24.0292 15.0713 25.2765 14.4046 26.6344 14.1345C27.9922 13.8644 29.3997 14.003 30.6788 14.5328C31.9579 15.0627 33.0511 15.9599 33.8203 17.111C34.5895 18.2622 35 19.6155 35 21C34.998 22.8559 34.2598 24.6352 32.9475 25.9475C31.6352 27.2598 29.8559 27.998 28 28Z" fill="white"/>
</g>
</svg>
