<svg width="50" height="52" viewBox="0 0 50 52" fill="none" xmlns="http://www.w3.org/2000/svg">
<g id="ion:location-sharp">
<path id="Vector" d="M25 3.74805C16.374 3.74805 9.375 10.2253 9.375 18.2066C9.375 31.0587 25 48.7304 25 48.7304C25 48.7304 40.625 31.0587 40.625 18.2066C40.625 10.2253 33.626 3.74805 25 3.74805ZM25 26.2392C23.7639 26.2392 22.5555 25.8623 21.5277 25.1562C20.4999 24.4501 19.6988 23.4465 19.2258 22.2723C18.7527 21.0981 18.6289 19.806 18.8701 18.5595C19.1112 17.313 19.7065 16.168 20.5806 15.2693C21.4547 14.3706 22.5683 13.7585 23.7807 13.5106C24.9931 13.2626 26.2497 13.3899 27.3918 13.8763C28.5338 14.3626 29.5099 15.1863 30.1967 16.243C30.8834 17.2998 31.25 18.5422 31.25 19.8132C31.2482 21.5169 30.5891 23.1503 29.4174 24.355C28.2457 25.5597 26.657 26.2373 25 26.2392Z" fill="white"/>
</g>
</svg>
