<svg width="42" height="42" viewBox="0 0 42 42" fill="none" xmlns="http://www.w3.org/2000/svg">
<g id="Group">
<path id="Vector" d="M10.8711 8.4175C11.6679 5.90683 13.6828 3.83017 16.3323 2.69267V5.83333C16.3323 6.14275 16.4552 6.4395 16.674 6.65829C16.8928 6.87708 17.1895 7 17.4989 7C17.8083 7 18.1051 6.87708 18.3239 6.65829C18.5427 6.4395 18.6656 6.14275 18.6656 5.83333V1.16667C18.6656 0.857247 18.7885 0.560501 19.0073 0.341709C19.2261 0.122917 19.5228 0 19.8323 0H22.1656C22.475 0 22.7718 0.122917 22.9906 0.341709C23.2093 0.560501 23.3323 0.857247 23.3323 1.16667V5.83333C23.3323 6.14275 23.4552 6.4395 23.674 6.65829C23.8928 6.87708 24.1895 7 24.4989 7C24.8083 7 25.1051 6.87708 25.3239 6.65829C25.5427 6.4395 25.6656 6.14275 25.6656 5.83333V2.69267C28.3536 3.8465 30.3871 5.96517 31.1606 8.52483C30.8608 8.7675 30.3603 9.0615 29.5798 9.34617C27.8391 9.98083 24.9189 10.5 20.3853 10.5C17.1198 10.5 14.4959 9.99133 12.7249 9.345C11.8709 9.0335 11.2573 8.7045 10.8711 8.4175Z" fill="white"/>
<path id="Vector_2" fill-rule="evenodd" clip-rule="evenodd" d="M30.38 11.5384C31.4125 11.1604 32.2268 10.7077 32.8055 10.1874C33.467 10.8209 33.8333 11.5174 33.8333 12.2501C33.8333 13.6477 32.4987 14.9182 30.3217 15.8586C30.3849 17.1219 30.1907 18.385 29.7507 19.571C29.3108 20.757 28.6344 21.8412 27.7626 22.7577C26.8908 23.6742 25.8417 24.404 24.6792 24.9026C23.5167 25.4013 22.265 25.6584 21 25.6584C19.735 25.6584 18.4833 25.4013 17.3208 24.9026C16.1583 24.404 15.1092 23.6742 14.2374 22.7577C13.3656 21.8412 12.6892 20.757 12.2493 19.571C11.8093 18.385 11.6151 17.1219 11.6783 15.8586C9.50133 14.9182 8.16667 13.6477 8.16667 12.2501C8.16667 11.4917 8.55867 10.7719 9.2645 10.1221L9.39633 10.2271C10.031 10.7182 10.899 11.1627 11.928 11.5372C13.9942 12.2921 16.8968 12.8334 20.3863 12.8334C25.0623 12.8334 28.2835 12.3026 30.38 11.5384ZM14.007 16.6531C14.0876 18.4536 14.8596 20.1537 16.1622 21.3993C17.4648 22.6449 19.1977 23.3401 21 23.3401C22.8023 23.3401 24.5352 22.6449 25.8378 21.3993C27.1404 20.1537 27.9124 18.4536 27.993 16.6531C25.9817 17.1897 23.5783 17.5001 21 17.5001C18.4217 17.5001 16.0183 17.1886 14.007 16.6531ZM0 42.0001H24.5V28.5834L22.1667 30.3334V34.8799C21.7842 34.9681 21.3924 35.0084 21 35.0001C20.4458 35.0001 20.0725 34.9417 19.8333 34.8799V30.5924L14.4118 26.3761C7.60667 27.6827 0 30.7277 0 35.0001V42.0001ZM8.16667 39.6667H17.5V34.0434L9.8875 35.3127L12.0762 29.2951C10.7502 29.6361 9.44489 30.0529 8.16667 30.5434V39.6667ZM2.33333 39.6667H5.83333V31.5922L5.747 31.6377C4.50567 32.2957 3.598 32.9666 3.02633 33.5977C2.46633 34.2184 2.33333 34.6769 2.33333 35.0001V39.6667Z" fill="white"/>
<path id="Vector_3" d="M30.9996 22.9254C31.674 22.2371 32.6096 22.9313 32.4043 23.8728L32.374 24.0104C32.2691 24.4903 32.273 24.9876 32.3856 25.4657C32.4982 25.9438 32.7166 26.3906 33.0246 26.7732C33.3326 27.1558 33.7224 27.4645 34.1655 27.6766C34.6085 27.8888 35.0934 27.9989 35.5846 27.9989C36.0758 27.9989 36.5608 27.8888 37.0038 27.6766C37.4468 27.4645 37.8367 27.1558 38.1447 26.7732C38.4527 26.3906 38.671 25.9438 38.7836 25.4657C38.8962 24.9876 38.9002 24.4903 38.7953 24.0104L38.765 23.8728C38.5596 22.9313 39.4953 22.2383 40.1696 22.9266C41.3457 24.1246 42.0036 25.7371 42.0013 27.4159C42.002 28.5041 41.7257 29.5745 41.1985 30.5265C40.6713 31.4784 39.9106 32.2805 38.9878 32.8573C38.6623 33.0603 38.5013 33.4499 38.5013 33.8338V39.6671C38.5013 40.2859 38.2555 40.8794 37.8179 41.317C37.3803 41.7546 36.7868 42.0004 36.168 42.0004H35.0013C34.3825 42.0004 33.789 41.7546 33.3514 41.317C32.9138 40.8794 32.668 40.2859 32.668 39.6671V33.8338C32.668 33.4499 32.507 33.0603 32.1815 32.8573C31.2586 32.2804 30.4977 31.4781 29.9705 30.526C29.4432 29.5738 29.1671 28.5031 29.168 27.4148C29.168 25.6671 29.8668 24.0816 30.9996 22.9254Z" fill="white"/>
</g>
</svg>
