<svg width="56" height="56" viewBox="0 0 56 56" fill="none" xmlns="http://www.w3.org/2000/svg">
<g id="bxs:phone-call">
<path id="Vector" d="M46.6653 25.6643H51.3319C51.3319 13.6943 42.2949 4.66663 30.3086 4.66663V9.33329C39.7866 9.33329 46.6653 16.2003 46.6653 25.6643Z" fill="#ED3537"/>
<path id="Vector_2" d="M30.334 18.6667C35.241 18.6667 37.334 20.7597 37.334 25.6667H42.0007C42.0007 18.1417 37.859 14 30.334 14V18.6667ZM38.3187 31.367C37.8703 30.9595 37.2811 30.7421 36.6755 30.7609C36.0699 30.7796 35.4953 31.0329 35.073 31.4673L29.4893 37.2097C28.1453 36.953 25.4433 36.1107 22.662 33.3363C19.8807 30.5527 19.0383 27.8437 18.7887 26.509L24.5263 20.923C24.9613 20.501 25.215 19.9262 25.2337 19.3205C25.2524 18.7147 25.0347 18.1254 24.6267 17.6773L16.005 8.19699C15.5968 7.74749 15.0294 7.47483 14.4233 7.43693C13.8173 7.39902 13.2204 7.59886 12.7593 7.99399L7.69599 12.3363C7.29258 12.7412 7.0518 13.28 7.01932 13.8507C6.98432 14.434 6.31699 28.252 17.0317 38.9713C26.379 48.3163 38.0877 49 41.3123 49C41.7837 49 42.073 48.986 42.15 48.9813C42.7205 48.9494 43.2591 48.7075 43.662 48.3023L48.002 43.2367C48.3974 42.7759 48.5976 42.1791 48.5602 41.5731C48.5227 40.9671 48.2505 40.3995 47.8013 39.991L38.3187 31.367Z" fill="#ED3537"/>
</g>
</svg>
