<svg width="40" height="40" viewBox="0 0 40 40" fill="none" xmlns="http://www.w3.org/2000/svg">
<g id="bxs:phone-call">
<path id="Vector" d="M33.3318 18.3313H36.6651C36.6651 9.78134 30.2101 3.33301 21.6484 3.33301V6.66634C28.4184 6.66634 33.3318 11.5713 33.3318 18.3313Z" fill="white"/>
<path id="Vector_2" d="M21.6671 13.3331C25.1721 13.3331 26.6671 14.8281 26.6671 18.3331H30.0005C30.0005 12.9581 27.0421 9.99975 21.6671 9.99975V13.3331ZM27.3705 22.4047C27.0502 22.1137 26.6294 21.9584 26.1968 21.9718C25.7642 21.9852 25.3538 22.1661 25.0521 22.4764L21.0638 26.5781C20.1038 26.3947 18.1738 25.7931 16.1871 23.8114C14.2005 21.8231 13.5988 19.8881 13.4205 18.9347L17.5188 14.9447C17.8295 14.6433 18.0107 14.2328 18.0241 13.8001C18.0374 13.3674 17.8819 12.9465 17.5905 12.6264L11.4321 5.85475C11.1405 5.53368 10.7353 5.33892 10.3024 5.31185C9.86951 5.28477 9.44313 5.42751 9.1138 5.70975L5.49714 8.81141C5.20899 9.10061 5.037 9.4855 5.0138 9.89308C4.9888 10.3097 4.51214 20.1797 12.1655 27.8364C18.8421 34.5114 27.2055 34.9997 29.5088 34.9997C29.8455 34.9997 30.0521 34.9897 30.1071 34.9864C30.5147 34.9636 30.8993 34.7908 31.1871 34.5014L34.2871 30.8831C34.5696 30.554 34.7126 30.1277 34.6858 29.6948C34.6591 29.262 34.4646 28.8566 34.1438 28.5647L27.3705 22.4047Z" fill="white"/>
</g>
</svg>
