<svg width="48" height="48" viewBox="0 0 48 48" fill="none" xmlns="http://www.w3.org/2000/svg">
<g id="ion:footsteps-sharp">
<path id="Vector" d="M12.2372 33.5916C11.0344 33.7679 9.05435 34.096 7.73717 32.6016C6.41998 31.1073 5.28092 27.4988 4.78029 24.2738C4.04154 19.5207 4.77467 15.5148 6.84279 12.9948C8.06154 11.5107 9.66092 10.651 11.4684 10.5141C13.0162 10.3951 15.329 11.0007 17.5622 14.5632C18.9609 16.7954 20.025 19.7607 20.4815 22.6979C21.0328 26.2435 21.57 30.0273 19.6903 31.3838C18.63 32.1498 17.8687 32.4151 16.0697 32.8435C14.5903 33.1951 13.4409 33.4145 12.2372 33.5916ZM10.0978 36.6413L20.3062 34.5357C21.1687 34.3576 21.8606 34.832 22.1812 36.2532C23.2331 40.9182 21.7256 46.5001 17.0044 46.5001C12.5334 46.5001 9.55404 41.4038 9.06748 38.6645C8.84529 37.4223 9.16217 36.8335 10.0978 36.6413ZM31.9294 23.8445C30.1303 23.4179 29.369 23.1507 28.3087 22.3848C26.429 21.0282 26.9662 17.2445 27.5175 13.6988C27.974 10.7616 29.0381 7.79259 30.4369 5.56415C32.6681 2.00165 34.9809 1.39602 36.5306 1.51509C38.3362 1.6529 39.9365 2.51071 41.1553 3.99477C43.2253 6.51477 43.9584 10.5207 43.2178 15.2738C42.7162 18.4988 41.5809 22.0951 40.2562 23.6016C38.9315 25.1082 36.9628 24.7679 35.7562 24.5916C34.5497 24.4154 33.4078 24.1951 31.9294 23.8445ZM37.9003 27.6413L27.6919 25.5357C26.8294 25.3576 26.1375 25.832 25.8169 27.2532C24.7659 31.9182 26.2734 37.5001 30.9947 37.5001C35.4656 37.5001 38.445 32.4038 38.9315 29.6645C39.1528 28.4223 38.8359 27.8335 37.9003 27.6413Z" fill="#ED3537"/>
</g>
</svg>
