<svg width="52" height="52" viewBox="0 0 52 52" fill="none" xmlns="http://www.w3.org/2000/svg">
<g id="Group">
<g id="Vector">
<path d="M20.1677 15.5L15.501 20.1667C14.4107 21.2352 13.543 22.5092 12.9481 23.9151C12.3533 25.321 12.043 26.8309 12.0353 28.3575C12.0276 29.8841 12.3226 31.397 12.9032 32.8089C13.4839 34.2207 14.3386 35.5035 15.4181 36.5829C16.4975 37.6624 17.7803 38.5171 19.1921 39.0978C20.604 39.6784 22.1169 39.9734 23.6435 39.9657C25.1701 39.958 26.68 39.6477 28.0859 39.0529C29.4918 38.458 30.7658 37.5903 31.8343 36.5L36.501 31.8333C37.5913 30.7648 38.459 29.4908 39.0538 28.0849C39.6487 26.679 39.959 25.1691 39.9667 23.6425C39.9744 22.1159 39.6794 20.603 39.0988 19.1911C38.5181 17.7793 37.6634 16.4966 36.5839 15.4171C35.5044 14.3376 34.2217 13.4829 32.8098 12.9022C31.398 12.3216 29.885 12.0266 28.3585 12.0343C26.8319 12.042 25.322 12.3523 23.9161 12.9472C22.5102 13.542 21.2362 14.4097 20.1677 15.5ZM30.6677 13.1667V36.5V13.1667ZM21.3343 15.5V38.8333V15.5Z" fill="#ED3537"/>
<path d="M30.6677 13.1667V36.5M21.3343 15.5V38.8333M20.1677 15.5L15.501 20.1667C14.4107 21.2352 13.543 22.5092 12.9481 23.9151C12.3533 25.321 12.043 26.8309 12.0353 28.3575C12.0276 29.8841 12.3226 31.397 12.9032 32.8089C13.4839 34.2207 14.3386 35.5035 15.4181 36.5829C16.4975 37.6624 17.7803 38.5171 19.1921 39.0978C20.604 39.6784 22.1169 39.9734 23.6435 39.9657C25.1701 39.958 26.68 39.6477 28.0859 39.0529C29.4918 38.458 30.7658 37.5903 31.8343 36.5L36.501 31.8333C37.5913 30.7648 38.459 29.4908 39.0538 28.0849C39.6487 26.679 39.959 25.1691 39.9667 23.6425C39.9744 22.1159 39.6794 20.603 39.0988 19.1911C38.5181 17.7793 37.6634 16.4966 36.5839 15.4171C35.5044 14.3376 34.2217 13.4829 32.8098 12.9022C31.398 12.3216 29.885 12.0266 28.3585 12.0343C26.8319 12.042 25.322 12.3523 23.9161 12.9472C22.5102 13.542 21.2362 14.4097 20.1677 15.5Z" stroke="#ED3537" stroke-width="4" stroke-linecap="round" stroke-linejoin="round"/>
</g>
<g id="Vector_2">
<path d="M35.3346 14.3337L37.668 2.66699L40.8646 4.25366C41.8278 4.73822 42.8898 4.99375 43.968 5.00033H47.0013V8.03366C47.0013 9.10699 47.2346 10.1803 47.748 11.137L49.3346 14.3337L37.668 16.667M16.668 37.667L14.3346 49.3337L11.138 47.747C10.1748 47.2624 9.11278 47.0069 8.03464 47.0003H5.0013V43.967C4.99473 42.8889 4.7392 41.8268 4.25464 40.8637L2.66797 37.667L14.3346 35.3337" fill="#ED3537"/>
<path d="M35.3346 14.3337L37.668 2.66699L40.8646 4.25366C41.8278 4.73822 42.8898 4.99375 43.968 5.00033H47.0013V8.03366C47.0013 9.10699 47.2346 10.1803 47.748 11.137L49.3346 14.3337L37.668 16.667M16.668 37.667L14.3346 49.3337L11.138 47.747C10.1748 47.2624 9.11278 47.0069 8.03464 47.0003H5.0013V43.967C4.99473 42.8889 4.7392 41.8268 4.25464 40.8637L2.66797 37.667L14.3346 35.3337" stroke="#ED3537" stroke-width="4" stroke-linecap="round" stroke-linejoin="round"/>
</g>
</g>
</svg>
