<svg width="56" height="56" viewBox="0 0 56 56" fill="none" xmlns="http://www.w3.org/2000/svg">
<g id="mdi:target-arrow">
<path id="Vector" d="M28.0013 4.66699C24.9371 4.66699 21.903 5.27053 19.072 6.44314C16.2411 7.61575 13.6688 9.33447 11.5021 11.5012C7.12629 15.877 4.66797 21.8119 4.66797 28.0003C4.66797 34.1887 7.12629 40.1236 11.5021 44.4995C13.6688 46.6662 16.2411 48.3849 19.072 49.5575C21.903 50.7301 24.9371 51.3337 28.0013 51.3337C34.1897 51.3337 40.1246 48.8753 44.5005 44.4995C48.8763 40.1236 51.3346 34.1887 51.3346 28.0003C51.3346 25.2937 50.8446 22.6103 49.9113 20.0903L46.178 23.8237C46.5046 25.2003 46.668 26.6003 46.668 28.0003C46.668 32.951 44.7013 37.699 41.2006 41.1997C37.7 44.7003 32.952 46.667 28.0013 46.667C23.0506 46.667 18.3027 44.7003 14.802 41.1997C11.3013 37.699 9.33464 32.951 9.33464 28.0003C9.33464 23.0496 11.3013 18.3017 14.802 14.801C18.3027 11.3003 23.0506 9.33366 28.0013 9.33366C29.4013 9.33366 30.8013 9.49699 32.178 9.82366L35.9346 6.06699C33.3913 5.15699 30.708 4.66699 28.0013 4.66699ZM44.3346 4.66699L35.0013 14.0003V17.5003L29.0513 23.4503C28.7013 23.3337 28.3513 23.3337 28.0013 23.3337C26.7636 23.3337 25.5766 23.8253 24.7015 24.7005C23.8263 25.5757 23.3346 26.7626 23.3346 28.0003C23.3346 29.238 23.8263 30.425 24.7015 31.3002C25.5766 32.1753 26.7636 32.667 28.0013 32.667C29.239 32.667 30.426 32.1753 31.3011 31.3002C32.1763 30.425 32.668 29.238 32.668 28.0003C32.668 27.6503 32.668 27.3003 32.5513 26.9503L38.5013 21.0003H42.0013L51.3346 11.667H44.3346V4.66699ZM28.0013 14.0003C24.2883 14.0003 20.7273 15.4753 18.1018 18.1008C15.4763 20.7263 14.0013 24.2873 14.0013 28.0003C14.0013 31.7134 15.4763 35.2743 18.1018 37.8998C20.7273 40.5253 24.2883 42.0003 28.0013 42.0003C31.7143 42.0003 35.2753 40.5253 37.9008 37.8998C40.5263 35.2743 42.0013 31.7134 42.0013 28.0003H37.3346C37.3346 30.4757 36.3513 32.8496 34.601 34.6C32.8506 36.3503 30.4767 37.3337 28.0013 37.3337C25.5259 37.3337 23.152 36.3503 21.4016 34.6C19.6513 32.8496 18.668 30.4757 18.668 28.0003C18.668 25.525 19.6513 23.151 21.4016 21.4007C23.152 19.6503 25.5259 18.667 28.0013 18.667V14.0003Z" fill="white"/>
</g>
</svg>
